<svg xmlns="http://www.w3.org/2000/svg" viewBox="0 0 174 174" width="174" height="174"><defs></defs><g transform="matrix(1,0,0,1,43.655588047,15.363148583)">
<g transform="matrix(1,0,0,1,-57,-28)">
	<g transform="matrix(1,0,0,1,285.5,64.5)">
		<g transform="matrix(1,0,0,1,-6,-2)">
			<g transform="matrix(1,0,0,1,40.370498657,37.628662109)">
				<g>
					<g>
						<path d="M-217.769667,-87.491811C-217.769667,-87.491811 -131.548167,-1.270311 -131.548167,-1.270311 C-131.548167,-1.270311 -220.304587,87.486109 -220.304587,87.486109 C-220.304587,87.486109 -306.526087,1.264609 -306.526087,1.264609 C-306.526087,1.264609 -217.769667,-87.491811 -217.769667,-87.491811 Z" fill="#000000"/>
					</g>
				</g>
				<g>
					<path d="M-213.683998,-1.827C-213.683998,-1.827 -188.084,-29.311001 -188.084,-29.311001 C-187.455002,-29.841 -187.245003,-30.415001 -187.245003,-31.030998 C-187.245003,-32.818001 -189.015999,-34.24 -197.657997,-35.362 C-203.601997,-36.134001 -211.491997,-36.559 -219.872002,-36.559 C-228.251999,-36.559 -236.141998,-36.134001 -242.085999,-35.361 C-250.728001,-34.24 -252.499001,-32.818001 -252.499001,-31.030998 C-252.499001,-30.415001 -252.290001,-29.842999 -251.661999,-29.312 C-251.661999,-29.312 -226.067001,-1.834999 -226.067001,-1.834999 C-225.257999,-0.764 -223.332001,2.427002 -223.332001,8.572998 C-223.332001,8.572998 -223.332001,25.363998 -223.332001,25.363998 C-229.466,25.774002 -235.523998,27.408997 -235.523998,30.918999 C-235.523998,35.389 -225.685001,36.582001 -219.872002,36.582001 C-214.057999,36.582001 -204.219002,35.388 -204.219002,30.918999 C-204.219002,27.367996 -210.306,25.737 -216.411003,25.348999 C-216.411003,25.348999 -216.411003,8.573997 -216.411003,8.573997 C-216.411003,2.432999 -214.488998,-0.757999 -213.683998,-1.826 M-219.377998,8.573997C-219.377998,8.573997 -219.377998,27.617996 -219.377998,27.617996 C-219.377998,28.413002 -219.237,29.073997 -219.003998,29.621002 C-219.526001,29.653 -220.219002,29.653 -220.739998,29.621002 C-220.507004,29.074997 -220.366997,28.413002 -220.366997,27.617996 C-220.366997,27.617996 -220.366997,8.572998 -220.366997,8.572998 C-220.366997,6.285004 -220.607002,4.336998 -220.973,2.702003 C-220.617996,2.797997 -220.249001,2.852997 -219.873001,2.852997 C-219.500595,2.851784 -219.130005,2.801003 -218.771004,2.702003 C-219.136002,4.336998 -219.377998,6.283997 -219.377998,8.571999 M-219.872002,-33.593C-204.706001,-33.593 -194.332001,-32.235001 -191.032997,-31.030998 C-194.332001,-29.826 -204.707001,-28.466999 -219.873001,-28.466999 C-235.039001,-28.466999 -245.414001,-29.825001 -248.713001,-31.030998 C-245.412998,-32.235001 -235.039001,-33.593 -219.873001,-33.593 M-242.087002,-26.699001C-236.141998,-25.925999 -228.252998,-25.5 -219.872002,-25.5 C-211.490997,-25.5 -203.601997,-25.925999 -197.657997,-26.698002 C-196.451866,-26.850761 -195.250092,-27.036163 -194.054001,-27.254002 C-194.054001,-27.254002 -215.238998,-4.509998 -215.238998,-4.509998 C-215.277,-4.480999 -215.317001,-4.458 -215.353996,-4.423 C-215.567513,-4.213497 -215.765686,-3.988918 -215.946999,-3.750999 C-215.946999,-3.750999 -218.942001,-0.535 -218.942001,-0.535 C-219.181267,-0.27597 -219.517868,-0.128662 -219.870499,-0.128662 C-220.223129,-0.128662 -220.559731,-0.27597 -220.799004,-0.535 C-220.799004,-0.535 -223.793999,-3.75 -223.793999,-3.75 C-223.975716,-3.988495 -224.174576,-4.213425 -224.389,-4.423 C-224.424999,-4.458 -224.466999,-4.483002 -224.505001,-4.511002 C-224.505001,-4.511002 -245.689999,-27.254002 -245.689999,-27.254002 C-244.646999,-27.061001 -243.452,-26.874001 -242.084999,-26.698002 M-207.193001,30.897003C-207.595001,31.702003 -211.803001,33.614998 -219.871002,33.614998 C-227.893002,33.614998 -232.098,31.724998 -232.542999,30.912003 C-232.209999,30.251999 -229.282001,28.781998 -223.425999,28.347 C-223.500999,28.575996 -223.630001,28.763 -223.853001,28.797997 C-224.448002,28.758003 -224.974998,29.096001 -225.236,29.654999 C-225.499001,30.221001 -225.313999,30.893997 -224.872002,31.334999 C-224.571999,31.635002 -223.321999,32.611 -219.872002,32.611 C-216.419998,32.611 -215.169998,31.634003 -214.869003,31.334999 C-214.427002,30.893997 -214.242996,30.221001 -214.507004,29.654999 C-214.766998,29.097 -215.279999,28.754997 -215.889,28.797997 C-216.117996,28.763 -216.247002,28.568001 -216.320999,28.330002 C-210.320999,28.748001 -207.432999,30.268997 -207.193001,30.897003 " fill="#d5e1ff"/>
				</g>
			</g>
		</g>
	</g>
</g></g></svg>